<svg xmlns="http://www.w3.org/2000/svg" viewBox="0 0 64 64" width="64" height="64">
  <defs>
    <radialGradient id="hearthGlow" cx="50%" cy="50%" r="50%">
      <stop offset="0%" stop-color="#34d399" stop-opacity="0.9"/>
      <stop offset="60%" stop-color="#10b981" stop-opacity="0.4"/>
      <stop offset="100%" stop-color="#059669" stop-opacity="0"/>
    </radialGradient>
  </defs>
  <!-- Background Shield / Stone Crest -->
  <polygon points="32,2 58,14 58,40 32,62 6,40 6,14" fill="#0f172a" stroke="#f59e0b" stroke-width="2.5" stroke-linejoin="round"/>
  <!-- Soul Flame Glow -->
  <circle cx="32" cy="34" r="16" fill="url(#hearthGlow)"/>
  <!-- Citadel Turret Icon -->
  <path d="M22 46 L22 26 L26 26 L26 30 L30 30 L30 26 L34 26 L34 30 L38 30 L38 26 L42 26 L42 46 Z" fill="#334155" stroke="#94a3b8" stroke-width="1.5"/>
  <!-- Glowing Eye / Rune -->
  <path d="M32 32 Q36 24 32 18 Q28 24 32 32 Z" fill="#34d399"/>
  <!-- Gold Accent -->
  <polygon points="32,6 36,14 28,14" fill="#fbbf24"/>
</svg>
